v -0.198750 -0.067500 -0.190000
v -0.198750 -0.067500 0.190000
v -0.198750 0.067500 -0.190000
v -0.198750 0.067500 0.190000
v 0.198750 -0.067500 -0.190000
v 0.198750 -0.067500 0.190000
v 0.198750 0.067500 -0.190000
v 0.198750 0.067500 0.190000
v 0.082935 -0.048750 -0.364491
v 0.082935 -0.048750 -0.153081
v 0.082935 0.048750 -0.364491
v 0.082935 0.048750 -0.153081
v 0.185435 -0.048750 -0.364491
v 0.185435 -0.048750 -0.153081
v 0.185435 0.048750 -0.364491
v 0.185435 0.048750 -0.153081
v 0.082935 -0.048750 -0.537015
v 0.082935 -0.048750 -0.325605
v 0.082935 0.048750 -0.537015
v 0.082935 0.048750 -0.325605
v 0.185435 -0.048750 -0.537015
v 0.185435 -0.048750 -0.325605
v 0.185435 0.048750 -0.537015
v 0.185435 0.048750 -0.325605
v -0.051250 -0.048750 -0.389870
v -0.051250 -0.048750 -0.146871
v -0.051250 0.048750 -0.389870
v -0.051250 0.048750 -0.146871
v 0.051250 -0.048750 -0.389870
v 0.051250 -0.048750 -0.146871
v 0.051250 0.048750 -0.389870
v 0.051250 0.048750 -0.146871
v -0.051250 -0.048750 -0.610318
v -0.051250 -0.048750 -0.367318
v -0.051250 0.048750 -0.610318
v -0.051250 0.048750 -0.367318
v 0.051250 -0.048750 -0.610318
v 0.051250 -0.048750 -0.367318
v 0.051250 0.048750 -0.610318
v 0.051250 0.048750 -0.367318
v -0.195020 -0.048750 -0.380286
v -0.195020 -0.048750 -0.137286
v -0.195020 0.048750 -0.380286
v -0.195020 0.048750 -0.137286
v -0.092520 -0.048750 -0.380286
v -0.092520 -0.048750 -0.137286
v -0.092520 0.048750 -0.380286
v -0.092520 0.048750 -0.137286
v -0.195020 -0.048750 -0.571979
v -0.195020 -0.048750 -0.328979
v -0.195020 0.048750 -0.571979
v -0.195020 0.048750 -0.328979
v -0.092520 -0.048750 -0.571979
v -0.092520 -0.048750 -0.328979
v -0.092520 0.048750 -0.571979
v -0.092520 0.048750 -0.328979
v -0.400677 -0.047533 -0.145297
v -0.228070 -0.049962 0.025729
v -0.399985 0.049962 -0.144611
v -0.227378 0.047533 0.026415
v -0.328533 -0.047533 -0.218108
v -0.155926 -0.049962 -0.047082
v -0.327841 0.049962 -0.217422
v -0.155233 0.047533 -0.046396
vn -1.000000 0.000000 0.000000
vn 0.000000 0.000000 1.000000
vn 1.000000 0.000000 0.000000
vn 0.000000 0.000000 -1.000000
vn 0.000000 -1.000000 0.000000
vn 0.000000 1.000000 0.000000
vn -1.000000 0.000000 0.000000
vn 0.000000 0.000000 1.000000
vn 1.000000 0.000000 0.000000
vn 0.000000 0.000000 -1.000000
vn 0.000000 -1.000000 0.000000
vn 0.000000 1.000000 0.000000
vn -1.000000 0.000000 0.000000
vn 0.000000 0.000000 1.000000
vn 1.000000 0.000000 0.000000
vn 0.000000 0.000000 -1.000000
vn 0.000000 -1.000000 0.000000
vn 0.000000 1.000000 0.000000
vn -1.000000 0.000000 0.000000
vn 0.000000 0.000000 1.000000
vn 1.000000 0.000000 0.000000
vn 0.000000 0.000000 -1.000000
vn 0.000000 -1.000000 0.000000
vn 0.000000 1.000000 0.000000
vn -1.000000 0.000000 0.000000
vn 0.000000 0.000000 1.000000
vn 1.000000 0.000000 0.000000
vn 0.000000 0.000000 -1.000000
vn 0.000000 -1.000000 0.000000
vn 0.000000 1.000000 0.000000
vn -1.000000 0.000000 0.000000
vn 0.000000 0.000000 1.000000
vn 1.000000 0.000000 0.000000
vn 0.000000 0.000000 -1.000000
vn 0.000000 -1.000000 0.000000
vn 0.000000 1.000000 0.000000
vn -1.000000 0.000000 0.000000
vn 0.000000 0.000000 1.000000
vn 1.000000 0.000000 0.000000
vn 0.000000 0.000000 -1.000000
vn 0.000000 -1.000000 0.000000
vn 0.000000 1.000000 0.000000
vn -1.000000 0.000000 0.000000
vn 0.000000 0.000000 1.000000
vn 1.000000 0.000000 0.000000
vn 0.000000 0.000000 -1.000000
vn 0.000000 -1.000000 0.000000
vn 0.000000 1.000000 0.000000
mtllib hand.mtl
usemtl grey
f 1//1 2//1 4//1 3//1
f 2//2 6//2 8//2 4//2
f 6//3 5//3 7//3 8//3
f 5//4 1//4 3//4 7//4
f 5//5 6//5 2//5 1//5
f 3//6 4//6 8//6 7//6
f 9//7 10//7 12//7 11//7
f 10//8 14//8 16//8 12//8
f 14//9 13//9 15//9 16//9
f 13//10 9//10 11//10 15//10
f 13//11 14//11 10//11 9//11
f 11//12 12//12 16//12 15//12
f 17//13 18//13 20//13 19//13
f 18//14 22//14 24//14 20//14
f 22//15 21//15 23//15 24//15
f 21//16 17//16 19//16 23//16
f 21//17 22//17 18//17 17//17
f 19//18 20//18 24//18 23//18
f 25//19 26//19 28//19 27//19
f 26//20 30//20 32//20 28//20
f 30//21 29//21 31//21 32//21
f 29//22 25//22 27//22 31//22
f 29//23 30//23 26//23 25//23
f 27//24 28//24 32//24 31//24
f 33//25 34//25 36//25 35//25
f 34//26 38//26 40//26 36//26
f 38//27 37//27 39//27 40//27
f 37//28 33//28 35//28 39//28
f 37//29 38//29 34//29 33//29
f 35//30 36//30 40//30 39//30
f 41//31 42//31 44//31 43//31
f 42//32 46//32 48//32 44//32
f 46//33 45//33 47//33 48//33
f 45//34 41//34 43//34 47//34
f 45//35 46//35 42//35 41//35
f 43//36 44//36 48//36 47//36
f 49//37 50//37 52//37 51//37
f 50//38 54//38 56//38 52//38
f 54//39 53//39 55//39 56//39
f 53//40 49//40 51//40 55//40
f 53//41 54//41 50//41 49//41
f 51//42 52//42 56//42 55//42
f 57//43 58//43 60//43 59//43
f 58//44 62//44 64//44 60//44
f 62//45 61//45 63//45 64//45
f 61//46 57//46 59//46 63//46
f 61//47 62//47 58//47 57//47
f 59//48 60//48 64//48 63//48
